<mxfile host="Electron" modified="2023-06-23T01:59:32.873Z" agent="Mozilla/5.0 (Windows NT 10.0; Win64; x64) AppleWebKit/537.36 (KHTML, like Gecko) draw.io/21.2.8 Chrome/112.0.5615.165 Electron/24.2.0 Safari/537.36" etag="-1wKqwLMmYu3ie4Stjnc" version="21.2.8" type="device">
  <diagram name="Page-1" id="IwwRymsjQRbEoxpzXy9T">
    <mxGraphModel dx="899" dy="525" grid="0" gridSize="10" guides="1" tooltips="1" connect="1" arrows="1" fold="1" page="1" pageScale="1" pageWidth="827" pageHeight="1169" math="0" shadow="0">
      <root>
        <mxCell id="0" />
        <mxCell id="1" parent="0" />
        <mxCell id="Vb70YIlhOIw_XtD3VGWa-4" value="" style="rounded=1;whiteSpace=wrap;html=1;" parent="1" vertex="1">
          <mxGeometry x="232" y="90" width="392" height="216" as="geometry" />
        </mxCell>
        <mxCell id="Vb70YIlhOIw_XtD3VGWa-15" value="Exchange&amp;nbsp;" style="rhombus;whiteSpace=wrap;html=1;" parent="1" vertex="1">
          <mxGeometry x="266" y="203" width="80" height="80" as="geometry" />
        </mxCell>
        <mxCell id="Vb70YIlhOIw_XtD3VGWa-16" value="Producer 1" style="rounded=1;whiteSpace=wrap;html=1;" parent="1" vertex="1">
          <mxGeometry x="71" y="213" width="104" height="60" as="geometry" />
        </mxCell>
        <mxCell id="Vb70YIlhOIw_XtD3VGWa-17" value="" style="endArrow=classic;html=1;rounded=0;" parent="1" source="Vb70YIlhOIw_XtD3VGWa-16" target="Vb70YIlhOIw_XtD3VGWa-15" edge="1">
          <mxGeometry width="50" height="50" relative="1" as="geometry">
            <mxPoint x="393" y="268" as="sourcePoint" />
            <mxPoint x="443" y="218" as="targetPoint" />
          </mxGeometry>
        </mxCell>
        <mxCell id="Vb70YIlhOIw_XtD3VGWa-24" value="" style="endArrow=classic;html=1;rounded=0;" parent="1" source="Vb70YIlhOIw_XtD3VGWa-15" target="Vb70YIlhOIw_XtD3VGWa-18" edge="1">
          <mxGeometry width="50" height="50" relative="1" as="geometry">
            <mxPoint x="393" y="268" as="sourcePoint" />
            <mxPoint x="443" y="218" as="targetPoint" />
          </mxGeometry>
        </mxCell>
        <mxCell id="Vb70YIlhOIw_XtD3VGWa-25" value="" style="group" parent="1" vertex="1" connectable="0">
          <mxGeometry x="394" y="213" width="126" height="60" as="geometry" />
        </mxCell>
        <mxCell id="Vb70YIlhOIw_XtD3VGWa-7" value="" style="rounded=0;whiteSpace=wrap;html=1;" parent="Vb70YIlhOIw_XtD3VGWa-25" vertex="1">
          <mxGeometry width="21" height="60" as="geometry" />
        </mxCell>
        <mxCell id="Vb70YIlhOIw_XtD3VGWa-8" value="" style="rounded=0;whiteSpace=wrap;html=1;" parent="Vb70YIlhOIw_XtD3VGWa-25" vertex="1">
          <mxGeometry x="21" width="21" height="60" as="geometry" />
        </mxCell>
        <mxCell id="Vb70YIlhOIw_XtD3VGWa-9" value="" style="rounded=0;whiteSpace=wrap;html=1;" parent="Vb70YIlhOIw_XtD3VGWa-25" vertex="1">
          <mxGeometry x="42" width="21" height="60" as="geometry" />
        </mxCell>
        <mxCell id="Vb70YIlhOIw_XtD3VGWa-10" value="" style="rounded=0;whiteSpace=wrap;html=1;" parent="Vb70YIlhOIw_XtD3VGWa-25" vertex="1">
          <mxGeometry x="63" width="21" height="60" as="geometry" />
        </mxCell>
        <mxCell id="Vb70YIlhOIw_XtD3VGWa-11" value="" style="rounded=0;whiteSpace=wrap;html=1;" parent="Vb70YIlhOIw_XtD3VGWa-25" vertex="1">
          <mxGeometry x="84" width="21" height="60" as="geometry" />
        </mxCell>
        <mxCell id="Vb70YIlhOIw_XtD3VGWa-12" value="" style="rounded=0;whiteSpace=wrap;html=1;" parent="Vb70YIlhOIw_XtD3VGWa-25" vertex="1">
          <mxGeometry x="105" width="21" height="60" as="geometry" />
        </mxCell>
        <mxCell id="Vb70YIlhOIw_XtD3VGWa-27" value="" style="group" parent="1" vertex="1" connectable="0">
          <mxGeometry x="394" y="130" width="126" height="60" as="geometry" />
        </mxCell>
        <mxCell id="Vb70YIlhOIw_XtD3VGWa-18" value="" style="rounded=0;whiteSpace=wrap;html=1;" parent="Vb70YIlhOIw_XtD3VGWa-27" vertex="1">
          <mxGeometry width="21" height="60" as="geometry" />
        </mxCell>
        <mxCell id="Vb70YIlhOIw_XtD3VGWa-19" value="" style="rounded=0;whiteSpace=wrap;html=1;" parent="Vb70YIlhOIw_XtD3VGWa-27" vertex="1">
          <mxGeometry x="21" width="21" height="60" as="geometry" />
        </mxCell>
        <mxCell id="Vb70YIlhOIw_XtD3VGWa-20" value="" style="rounded=0;whiteSpace=wrap;html=1;" parent="Vb70YIlhOIw_XtD3VGWa-27" vertex="1">
          <mxGeometry x="42" width="21" height="60" as="geometry" />
        </mxCell>
        <mxCell id="Vb70YIlhOIw_XtD3VGWa-21" value="" style="rounded=0;whiteSpace=wrap;html=1;" parent="Vb70YIlhOIw_XtD3VGWa-27" vertex="1">
          <mxGeometry x="63" width="21" height="60" as="geometry" />
        </mxCell>
        <mxCell id="Vb70YIlhOIw_XtD3VGWa-22" value="" style="rounded=0;whiteSpace=wrap;html=1;" parent="Vb70YIlhOIw_XtD3VGWa-27" vertex="1">
          <mxGeometry x="84" width="21" height="60" as="geometry" />
        </mxCell>
        <mxCell id="Vb70YIlhOIw_XtD3VGWa-23" value="" style="rounded=0;whiteSpace=wrap;html=1;" parent="Vb70YIlhOIw_XtD3VGWa-27" vertex="1">
          <mxGeometry x="105" width="21" height="60" as="geometry" />
        </mxCell>
        <mxCell id="Vb70YIlhOIw_XtD3VGWa-28" value="" style="endArrow=classic;html=1;rounded=0;" parent="1" source="Vb70YIlhOIw_XtD3VGWa-15" target="Vb70YIlhOIw_XtD3VGWa-7" edge="1">
          <mxGeometry width="50" height="50" relative="1" as="geometry">
            <mxPoint x="393" y="268" as="sourcePoint" />
            <mxPoint x="443" y="218" as="targetPoint" />
          </mxGeometry>
        </mxCell>
        <mxCell id="Vb70YIlhOIw_XtD3VGWa-29" value="Consumer 1" style="rounded=1;whiteSpace=wrap;html=1;" parent="1" vertex="1">
          <mxGeometry x="656" y="130" width="111" height="60" as="geometry" />
        </mxCell>
        <mxCell id="Vb70YIlhOIw_XtD3VGWa-30" value="Consumer 2" style="rounded=1;whiteSpace=wrap;html=1;" parent="1" vertex="1">
          <mxGeometry x="656" y="213" width="111" height="60" as="geometry" />
        </mxCell>
        <mxCell id="Vb70YIlhOIw_XtD3VGWa-31" value="Consumer 3&lt;br&gt;2 message/s" style="rounded=1;whiteSpace=wrap;html=1;" parent="1" vertex="1">
          <mxGeometry x="650" y="349" width="111" height="60" as="geometry" />
        </mxCell>
        <mxCell id="Vb70YIlhOIw_XtD3VGWa-32" value="" style="endArrow=classic;html=1;rounded=0;" parent="1" source="Vb70YIlhOIw_XtD3VGWa-23" target="Vb70YIlhOIw_XtD3VGWa-29" edge="1">
          <mxGeometry width="50" height="50" relative="1" as="geometry">
            <mxPoint x="393" y="261" as="sourcePoint" />
            <mxPoint x="443" y="211" as="targetPoint" />
          </mxGeometry>
        </mxCell>
        <mxCell id="Vb70YIlhOIw_XtD3VGWa-33" value="" style="endArrow=classic;html=1;rounded=0;" parent="1" source="Vb70YIlhOIw_XtD3VGWa-12" target="Vb70YIlhOIw_XtD3VGWa-29" edge="1">
          <mxGeometry width="50" height="50" relative="1" as="geometry">
            <mxPoint x="393" y="261" as="sourcePoint" />
            <mxPoint x="443" y="211" as="targetPoint" />
          </mxGeometry>
        </mxCell>
        <mxCell id="Vb70YIlhOIw_XtD3VGWa-34" value="" style="endArrow=classic;html=1;rounded=0;" parent="1" source="Vb70YIlhOIw_XtD3VGWa-12" target="Vb70YIlhOIw_XtD3VGWa-30" edge="1">
          <mxGeometry width="50" height="50" relative="1" as="geometry">
            <mxPoint x="535" y="462" as="sourcePoint" />
            <mxPoint x="443" y="211" as="targetPoint" />
          </mxGeometry>
        </mxCell>
        <mxCell id="Vb70YIlhOIw_XtD3VGWa-35" value="Producer" style="rounded=1;whiteSpace=wrap;html=1;" parent="1" vertex="1">
          <mxGeometry x="58" y="421" width="113" height="60" as="geometry" />
        </mxCell>
        <mxCell id="Vb70YIlhOIw_XtD3VGWa-36" value="Default&lt;br&gt;Exchange" style="rhombus;whiteSpace=wrap;html=1;" parent="1" vertex="1">
          <mxGeometry x="268" y="409" width="80" height="80" as="geometry" />
        </mxCell>
        <mxCell id="Vb70YIlhOIw_XtD3VGWa-37" value="" style="group;fillColor=#dae8fc;strokeColor=#6c8ebf;" parent="1" vertex="1" connectable="0">
          <mxGeometry x="393.34" y="419" width="126" height="60" as="geometry" />
        </mxCell>
        <mxCell id="Vb70YIlhOIw_XtD3VGWa-38" value="" style="rounded=0;whiteSpace=wrap;html=1;" parent="Vb70YIlhOIw_XtD3VGWa-37" vertex="1">
          <mxGeometry width="21" height="60" as="geometry" />
        </mxCell>
        <mxCell id="Vb70YIlhOIw_XtD3VGWa-39" value="" style="rounded=0;whiteSpace=wrap;html=1;" parent="Vb70YIlhOIw_XtD3VGWa-37" vertex="1">
          <mxGeometry x="21" width="21" height="60" as="geometry" />
        </mxCell>
        <mxCell id="Vb70YIlhOIw_XtD3VGWa-40" value="" style="rounded=0;whiteSpace=wrap;html=1;" parent="Vb70YIlhOIw_XtD3VGWa-37" vertex="1">
          <mxGeometry x="42" width="21" height="60" as="geometry" />
        </mxCell>
        <mxCell id="Vb70YIlhOIw_XtD3VGWa-41" value="" style="rounded=0;whiteSpace=wrap;html=1;" parent="Vb70YIlhOIw_XtD3VGWa-37" vertex="1">
          <mxGeometry x="63" width="21" height="60" as="geometry" />
        </mxCell>
        <mxCell id="Vb70YIlhOIw_XtD3VGWa-42" value="" style="rounded=0;whiteSpace=wrap;html=1;" parent="Vb70YIlhOIw_XtD3VGWa-37" vertex="1">
          <mxGeometry x="84" width="21" height="60" as="geometry" />
        </mxCell>
        <mxCell id="Vb70YIlhOIw_XtD3VGWa-43" value="" style="rounded=0;whiteSpace=wrap;html=1;" parent="Vb70YIlhOIw_XtD3VGWa-37" vertex="1">
          <mxGeometry x="105" width="21" height="60" as="geometry" />
        </mxCell>
        <mxCell id="Vb70YIlhOIw_XtD3VGWa-44" value="msg 1&lt;br&gt;msg 2&lt;br&gt;msg 3&lt;br&gt;msg 4&lt;br&gt;msg 5" style="endArrow=classic;html=1;rounded=0;" parent="1" source="Vb70YIlhOIw_XtD3VGWa-35" target="Vb70YIlhOIw_XtD3VGWa-36" edge="1">
          <mxGeometry width="50" height="50" relative="1" as="geometry">
            <mxPoint x="387" y="299" as="sourcePoint" />
            <mxPoint x="437" y="249" as="targetPoint" />
          </mxGeometry>
        </mxCell>
        <mxCell id="Vb70YIlhOIw_XtD3VGWa-45" value="msg 1&lt;br&gt;msg 3&lt;br&gt;msg 5" style="endArrow=classic;html=1;rounded=0;" parent="1" source="Vb70YIlhOIw_XtD3VGWa-43" target="Vb70YIlhOIw_XtD3VGWa-31" edge="1">
          <mxGeometry x="0.3053" y="-1" width="50" height="50" relative="1" as="geometry">
            <mxPoint x="387" y="299" as="sourcePoint" />
            <mxPoint x="437" y="249" as="targetPoint" />
            <mxPoint as="offset" />
          </mxGeometry>
        </mxCell>
        <mxCell id="Vb70YIlhOIw_XtD3VGWa-46" value="" style="endArrow=classic;html=1;rounded=0;" parent="1" source="Vb70YIlhOIw_XtD3VGWa-36" target="Vb70YIlhOIw_XtD3VGWa-38" edge="1">
          <mxGeometry width="50" height="50" relative="1" as="geometry">
            <mxPoint x="355.99921787709474" y="450.6592178770949" as="sourcePoint" />
            <mxPoint x="446.34" y="252" as="targetPoint" />
          </mxGeometry>
        </mxCell>
        <mxCell id="Vb70YIlhOIw_XtD3VGWa-47" value="Consumer 4&lt;br&gt;8 message/s" style="rounded=1;whiteSpace=wrap;html=1;" parent="1" vertex="1">
          <mxGeometry x="652" y="469" width="111" height="60" as="geometry" />
        </mxCell>
        <mxCell id="Vb70YIlhOIw_XtD3VGWa-48" value="msg 2&lt;br&gt;msg 4" style="endArrow=classic;html=1;rounded=0;" parent="1" source="Vb70YIlhOIw_XtD3VGWa-43" target="Vb70YIlhOIw_XtD3VGWa-47" edge="1">
          <mxGeometry x="0.3404" y="-1" width="50" height="50" relative="1" as="geometry">
            <mxPoint x="387" y="284" as="sourcePoint" />
            <mxPoint x="437" y="234" as="targetPoint" />
            <mxPoint as="offset" />
          </mxGeometry>
        </mxCell>
        <mxCell id="Vb70YIlhOIw_XtD3VGWa-49" value="Compette Consumers" style="text;html=1;strokeColor=none;fillColor=none;align=center;verticalAlign=middle;whiteSpace=wrap;rounded=0;" parent="1" vertex="1">
          <mxGeometry x="646.5" y="429" width="122" height="30" as="geometry" />
        </mxCell>
        <mxCell id="Vb70YIlhOIw_XtD3VGWa-50" value="Round Robin" style="text;html=1;strokeColor=none;fillColor=none;align=center;verticalAlign=middle;whiteSpace=wrap;rounded=0;" parent="1" vertex="1">
          <mxGeometry x="525" y="359" width="122" height="30" as="geometry" />
        </mxCell>
        <mxCell id="pbrxjNJc5w09oc1R1D4f-2" value="Topic&lt;br&gt;Exchange" style="rhombus;whiteSpace=wrap;html=1;" parent="1" vertex="1">
          <mxGeometry x="257.5" y="1256" width="80" height="80" as="geometry" />
        </mxCell>
        <mxCell id="pbrxjNJc5w09oc1R1D4f-3" value="Producer 1" style="rounded=1;whiteSpace=wrap;html=1;" parent="1" vertex="1">
          <mxGeometry x="77.5" y="1266" width="104" height="60" as="geometry" />
        </mxCell>
        <mxCell id="pbrxjNJc5w09oc1R1D4f-4" value="a.bbb.c&lt;br&gt;aaa.bbb&lt;br&gt;aaa.bbb.ccc" style="endArrow=classic;html=1;rounded=0;" parent="1" edge="1">
          <mxGeometry x="0.0025" width="50" height="50" relative="1" as="geometry">
            <mxPoint x="181.5" y="1296.0000000000002" as="sourcePoint" />
            <mxPoint x="257.5" y="1296.0000000000002" as="targetPoint" />
            <mxPoint as="offset" />
          </mxGeometry>
        </mxCell>
        <mxCell id="pbrxjNJc5w09oc1R1D4f-5" value="binding(*.bbb.*)" style="endArrow=classic;html=1;rounded=0;" parent="1" source="pbrxjNJc5w09oc1R1D4f-2" target="pbrxjNJc5w09oc1R1D4f-14" edge="1">
          <mxGeometry width="50" height="50" relative="1" as="geometry">
            <mxPoint x="399.5" y="1321" as="sourcePoint" />
            <mxPoint x="449.5" y="1271" as="targetPoint" />
          </mxGeometry>
        </mxCell>
        <mxCell id="pbrxjNJc5w09oc1R1D4f-6" value="" style="group" parent="1" vertex="1" connectable="0">
          <mxGeometry x="426.5" y="1269" width="126" height="60" as="geometry" />
        </mxCell>
        <mxCell id="pbrxjNJc5w09oc1R1D4f-7" value="" style="rounded=0;whiteSpace=wrap;html=1;" parent="pbrxjNJc5w09oc1R1D4f-6" vertex="1">
          <mxGeometry width="21" height="60" as="geometry" />
        </mxCell>
        <mxCell id="pbrxjNJc5w09oc1R1D4f-8" value="" style="rounded=0;whiteSpace=wrap;html=1;" parent="pbrxjNJc5w09oc1R1D4f-6" vertex="1">
          <mxGeometry x="21" width="21" height="60" as="geometry" />
        </mxCell>
        <mxCell id="pbrxjNJc5w09oc1R1D4f-9" value="" style="rounded=0;whiteSpace=wrap;html=1;" parent="pbrxjNJc5w09oc1R1D4f-6" vertex="1">
          <mxGeometry x="42" width="21" height="60" as="geometry" />
        </mxCell>
        <mxCell id="pbrxjNJc5w09oc1R1D4f-10" value="" style="rounded=0;whiteSpace=wrap;html=1;" parent="pbrxjNJc5w09oc1R1D4f-6" vertex="1">
          <mxGeometry x="63" width="21" height="60" as="geometry" />
        </mxCell>
        <mxCell id="pbrxjNJc5w09oc1R1D4f-11" value="" style="rounded=0;whiteSpace=wrap;html=1;" parent="pbrxjNJc5w09oc1R1D4f-6" vertex="1">
          <mxGeometry x="84" width="21" height="60" as="geometry" />
        </mxCell>
        <mxCell id="pbrxjNJc5w09oc1R1D4f-12" value="" style="rounded=0;whiteSpace=wrap;html=1;" parent="pbrxjNJc5w09oc1R1D4f-6" vertex="1">
          <mxGeometry x="105" width="21" height="60" as="geometry" />
        </mxCell>
        <mxCell id="pbrxjNJc5w09oc1R1D4f-13" value="" style="group" parent="1" vertex="1" connectable="0">
          <mxGeometry x="426.5" y="1186" width="126" height="60" as="geometry" />
        </mxCell>
        <mxCell id="pbrxjNJc5w09oc1R1D4f-14" value="" style="rounded=0;whiteSpace=wrap;html=1;" parent="pbrxjNJc5w09oc1R1D4f-13" vertex="1">
          <mxGeometry width="21" height="60" as="geometry" />
        </mxCell>
        <mxCell id="pbrxjNJc5w09oc1R1D4f-15" value="" style="rounded=0;whiteSpace=wrap;html=1;" parent="pbrxjNJc5w09oc1R1D4f-13" vertex="1">
          <mxGeometry x="21" width="21" height="60" as="geometry" />
        </mxCell>
        <mxCell id="pbrxjNJc5w09oc1R1D4f-16" value="" style="rounded=0;whiteSpace=wrap;html=1;" parent="pbrxjNJc5w09oc1R1D4f-13" vertex="1">
          <mxGeometry x="42" width="21" height="60" as="geometry" />
        </mxCell>
        <mxCell id="pbrxjNJc5w09oc1R1D4f-17" value="" style="rounded=0;whiteSpace=wrap;html=1;" parent="pbrxjNJc5w09oc1R1D4f-13" vertex="1">
          <mxGeometry x="63" width="21" height="60" as="geometry" />
        </mxCell>
        <mxCell id="pbrxjNJc5w09oc1R1D4f-18" value="" style="rounded=0;whiteSpace=wrap;html=1;" parent="pbrxjNJc5w09oc1R1D4f-13" vertex="1">
          <mxGeometry x="84" width="21" height="60" as="geometry" />
        </mxCell>
        <mxCell id="pbrxjNJc5w09oc1R1D4f-19" value="" style="rounded=0;whiteSpace=wrap;html=1;" parent="pbrxjNJc5w09oc1R1D4f-13" vertex="1">
          <mxGeometry x="105" width="21" height="60" as="geometry" />
        </mxCell>
        <mxCell id="pbrxjNJc5w09oc1R1D4f-20" value="binding(aaa.*.ccc)" style="endArrow=classic;html=1;rounded=0;" parent="1" source="pbrxjNJc5w09oc1R1D4f-2" target="pbrxjNJc5w09oc1R1D4f-7" edge="1">
          <mxGeometry width="50" height="50" relative="1" as="geometry">
            <mxPoint x="399.5" y="1321" as="sourcePoint" />
            <mxPoint x="449.5" y="1271" as="targetPoint" />
          </mxGeometry>
        </mxCell>
        <mxCell id="pbrxjNJc5w09oc1R1D4f-21" value="Consumer 1" style="rounded=1;whiteSpace=wrap;html=1;" parent="1" vertex="1">
          <mxGeometry x="670.5" y="1183" width="111" height="60" as="geometry" />
        </mxCell>
        <mxCell id="pbrxjNJc5w09oc1R1D4f-22" value="Consumer 2" style="rounded=1;whiteSpace=wrap;html=1;" parent="1" vertex="1">
          <mxGeometry x="668.5" y="1266" width="111" height="60" as="geometry" />
        </mxCell>
        <mxCell id="pbrxjNJc5w09oc1R1D4f-23" value="a.bbb.c&lt;br&gt;aaa.bbb.ccc" style="endArrow=classic;html=1;rounded=0;" parent="1" source="pbrxjNJc5w09oc1R1D4f-19" target="pbrxjNJc5w09oc1R1D4f-21" edge="1">
          <mxGeometry width="50" height="50" relative="1" as="geometry">
            <mxPoint x="399.5" y="1314" as="sourcePoint" />
            <mxPoint x="449.5" y="1264" as="targetPoint" />
          </mxGeometry>
        </mxCell>
        <mxCell id="pbrxjNJc5w09oc1R1D4f-25" value="aaa.bbb.ccc" style="endArrow=classic;html=1;rounded=0;" parent="1" source="pbrxjNJc5w09oc1R1D4f-12" target="pbrxjNJc5w09oc1R1D4f-22" edge="1">
          <mxGeometry width="50" height="50" relative="1" as="geometry">
            <mxPoint x="541.5" y="1515" as="sourcePoint" />
            <mxPoint x="449.5" y="1264" as="targetPoint" />
          </mxGeometry>
        </mxCell>
        <mxCell id="pbrxjNJc5w09oc1R1D4f-26" value="" style="group" parent="1" vertex="1" connectable="0">
          <mxGeometry x="426.5" y="1353" width="126" height="60" as="geometry" />
        </mxCell>
        <mxCell id="pbrxjNJc5w09oc1R1D4f-27" value="" style="rounded=0;whiteSpace=wrap;html=1;" parent="pbrxjNJc5w09oc1R1D4f-26" vertex="1">
          <mxGeometry width="21" height="60" as="geometry" />
        </mxCell>
        <mxCell id="pbrxjNJc5w09oc1R1D4f-28" value="" style="rounded=0;whiteSpace=wrap;html=1;" parent="pbrxjNJc5w09oc1R1D4f-26" vertex="1">
          <mxGeometry x="21" width="21" height="60" as="geometry" />
        </mxCell>
        <mxCell id="pbrxjNJc5w09oc1R1D4f-29" value="" style="rounded=0;whiteSpace=wrap;html=1;" parent="pbrxjNJc5w09oc1R1D4f-26" vertex="1">
          <mxGeometry x="42" width="21" height="60" as="geometry" />
        </mxCell>
        <mxCell id="pbrxjNJc5w09oc1R1D4f-30" value="" style="rounded=0;whiteSpace=wrap;html=1;" parent="pbrxjNJc5w09oc1R1D4f-26" vertex="1">
          <mxGeometry x="63" width="21" height="60" as="geometry" />
        </mxCell>
        <mxCell id="pbrxjNJc5w09oc1R1D4f-31" value="" style="rounded=0;whiteSpace=wrap;html=1;" parent="pbrxjNJc5w09oc1R1D4f-26" vertex="1">
          <mxGeometry x="84" width="21" height="60" as="geometry" />
        </mxCell>
        <mxCell id="pbrxjNJc5w09oc1R1D4f-32" value="" style="rounded=0;whiteSpace=wrap;html=1;" parent="pbrxjNJc5w09oc1R1D4f-26" vertex="1">
          <mxGeometry x="105" width="21" height="60" as="geometry" />
        </mxCell>
        <mxCell id="pbrxjNJc5w09oc1R1D4f-33" value="binding(aaa.#)" style="endArrow=classic;html=1;rounded=0;" parent="1" source="pbrxjNJc5w09oc1R1D4f-2" target="pbrxjNJc5w09oc1R1D4f-27" edge="1">
          <mxGeometry width="50" height="50" relative="1" as="geometry">
            <mxPoint x="344.5" y="1288" as="sourcePoint" />
            <mxPoint x="410.5" y="1232" as="targetPoint" />
          </mxGeometry>
        </mxCell>
        <mxCell id="pbrxjNJc5w09oc1R1D4f-34" value="Consumer 3" style="rounded=1;whiteSpace=wrap;html=1;" parent="1" vertex="1">
          <mxGeometry x="668.5" y="1350" width="111" height="60" as="geometry" />
        </mxCell>
        <mxCell id="pbrxjNJc5w09oc1R1D4f-35" value="aaa.bbb" style="endArrow=classic;html=1;rounded=0;" parent="1" source="pbrxjNJc5w09oc1R1D4f-32" target="pbrxjNJc5w09oc1R1D4f-34" edge="1">
          <mxGeometry width="50" height="50" relative="1" as="geometry">
            <mxPoint x="536.5" y="1306" as="sourcePoint" />
            <mxPoint x="678.5" y="1306" as="targetPoint" />
          </mxGeometry>
        </mxCell>
        <mxCell id="LhaRlDJhXZ1Ku-Um4sd2-2" value="Direct&lt;br&gt;Exchange" style="rhombus;whiteSpace=wrap;html=1;" parent="1" vertex="1">
          <mxGeometry x="254.5" y="922" width="80" height="80" as="geometry" />
        </mxCell>
        <mxCell id="LhaRlDJhXZ1Ku-Um4sd2-3" value="Producer" style="rounded=1;whiteSpace=wrap;html=1;" parent="1" vertex="1">
          <mxGeometry x="74.5" y="932" width="104" height="60" as="geometry" />
        </mxCell>
        <mxCell id="LhaRlDJhXZ1Ku-Um4sd2-5" value="&lt;font color=&quot;#ff0000&quot;&gt;binding (red)&lt;/font&gt;" style="endArrow=classic;html=1;rounded=0;entryX=0;entryY=0.25;entryDx=0;entryDy=0;exitX=0.646;exitY=0.136;exitDx=0;exitDy=0;exitPerimeter=0;strokeColor=#FF0000;" parent="1" source="LhaRlDJhXZ1Ku-Um4sd2-2" target="LhaRlDJhXZ1Ku-Um4sd2-14" edge="1">
          <mxGeometry x="0.0223" width="50" height="50" relative="1" as="geometry">
            <mxPoint x="396.5" y="987" as="sourcePoint" />
            <mxPoint x="446.5" y="937" as="targetPoint" />
            <mxPoint as="offset" />
          </mxGeometry>
        </mxCell>
        <mxCell id="LhaRlDJhXZ1Ku-Um4sd2-13" value="" style="group" parent="1" vertex="1" connectable="0">
          <mxGeometry x="424.5" y="866" width="126" height="60" as="geometry" />
        </mxCell>
        <mxCell id="LhaRlDJhXZ1Ku-Um4sd2-14" value="" style="rounded=0;whiteSpace=wrap;html=1;" parent="LhaRlDJhXZ1Ku-Um4sd2-13" vertex="1">
          <mxGeometry width="21" height="60" as="geometry" />
        </mxCell>
        <mxCell id="LhaRlDJhXZ1Ku-Um4sd2-15" value="" style="rounded=0;whiteSpace=wrap;html=1;" parent="LhaRlDJhXZ1Ku-Um4sd2-13" vertex="1">
          <mxGeometry x="21" width="21" height="60" as="geometry" />
        </mxCell>
        <mxCell id="LhaRlDJhXZ1Ku-Um4sd2-16" value="" style="rounded=0;whiteSpace=wrap;html=1;" parent="LhaRlDJhXZ1Ku-Um4sd2-13" vertex="1">
          <mxGeometry x="42" width="21" height="60" as="geometry" />
        </mxCell>
        <mxCell id="LhaRlDJhXZ1Ku-Um4sd2-17" value="" style="rounded=0;whiteSpace=wrap;html=1;" parent="LhaRlDJhXZ1Ku-Um4sd2-13" vertex="1">
          <mxGeometry x="63" width="21" height="60" as="geometry" />
        </mxCell>
        <mxCell id="LhaRlDJhXZ1Ku-Um4sd2-18" value="" style="rounded=0;whiteSpace=wrap;html=1;" parent="LhaRlDJhXZ1Ku-Um4sd2-13" vertex="1">
          <mxGeometry x="84" width="21" height="60" as="geometry" />
        </mxCell>
        <mxCell id="LhaRlDJhXZ1Ku-Um4sd2-19" value="" style="rounded=0;whiteSpace=wrap;html=1;" parent="LhaRlDJhXZ1Ku-Um4sd2-13" vertex="1">
          <mxGeometry x="105" width="21" height="60" as="geometry" />
        </mxCell>
        <mxCell id="LhaRlDJhXZ1Ku-Um4sd2-21" value="Consumer 1" style="rounded=1;whiteSpace=wrap;html=1;" parent="1" vertex="1">
          <mxGeometry x="670.5" y="865" width="111" height="60" as="geometry" />
        </mxCell>
        <mxCell id="LhaRlDJhXZ1Ku-Um4sd2-25" value="" style="group" parent="1" vertex="1" connectable="0">
          <mxGeometry x="421.5" y="996" width="126" height="60" as="geometry" />
        </mxCell>
        <mxCell id="LhaRlDJhXZ1Ku-Um4sd2-26" value="" style="rounded=0;whiteSpace=wrap;html=1;" parent="LhaRlDJhXZ1Ku-Um4sd2-25" vertex="1">
          <mxGeometry width="21" height="60" as="geometry" />
        </mxCell>
        <mxCell id="LhaRlDJhXZ1Ku-Um4sd2-27" value="" style="rounded=0;whiteSpace=wrap;html=1;" parent="LhaRlDJhXZ1Ku-Um4sd2-25" vertex="1">
          <mxGeometry x="21" width="21" height="60" as="geometry" />
        </mxCell>
        <mxCell id="LhaRlDJhXZ1Ku-Um4sd2-28" value="" style="rounded=0;whiteSpace=wrap;html=1;" parent="LhaRlDJhXZ1Ku-Um4sd2-25" vertex="1">
          <mxGeometry x="42" width="21" height="60" as="geometry" />
        </mxCell>
        <mxCell id="LhaRlDJhXZ1Ku-Um4sd2-29" value="" style="rounded=0;whiteSpace=wrap;html=1;" parent="LhaRlDJhXZ1Ku-Um4sd2-25" vertex="1">
          <mxGeometry x="63" width="21" height="60" as="geometry" />
        </mxCell>
        <mxCell id="LhaRlDJhXZ1Ku-Um4sd2-30" value="" style="rounded=0;whiteSpace=wrap;html=1;" parent="LhaRlDJhXZ1Ku-Um4sd2-25" vertex="1">
          <mxGeometry x="84" width="21" height="60" as="geometry" />
        </mxCell>
        <mxCell id="LhaRlDJhXZ1Ku-Um4sd2-31" value="" style="rounded=0;whiteSpace=wrap;html=1;" parent="LhaRlDJhXZ1Ku-Um4sd2-25" vertex="1">
          <mxGeometry x="105" width="21" height="60" as="geometry" />
        </mxCell>
        <mxCell id="LhaRlDJhXZ1Ku-Um4sd2-32" value="&lt;font&gt;binding(green)&lt;/font&gt;" style="endArrow=classic;html=1;rounded=0;entryX=0;entryY=0.25;entryDx=0;entryDy=0;exitX=0.927;exitY=0.579;exitDx=0;exitDy=0;exitPerimeter=0;fillColor=#60a917;strokeColor=#2D7600;fontColor=#00FF00;" parent="1" source="LhaRlDJhXZ1Ku-Um4sd2-2" target="LhaRlDJhXZ1Ku-Um4sd2-26" edge="1">
          <mxGeometry x="-0.0253" y="-1" width="50" height="50" relative="1" as="geometry">
            <mxPoint x="341.5" y="954" as="sourcePoint" />
            <mxPoint x="407.5" y="898" as="targetPoint" />
            <mxPoint as="offset" />
          </mxGeometry>
        </mxCell>
        <mxCell id="LhaRlDJhXZ1Ku-Um4sd2-33" value="Consumer 3" style="rounded=1;whiteSpace=wrap;html=1;" parent="1" vertex="1">
          <mxGeometry x="665.5" y="995" width="111" height="60" as="geometry" />
        </mxCell>
        <mxCell id="LhaRlDJhXZ1Ku-Um4sd2-34" value="&lt;font color=&quot;#00ff00&quot; style=&quot;border-color: var(--border-color); font-family: Helvetica; font-size: 11px; font-style: normal; font-variant-ligatures: normal; font-variant-caps: normal; font-weight: 400; letter-spacing: normal; orphans: 2; text-align: center; text-indent: 0px; text-transform: none; widows: 2; word-spacing: 0px; -webkit-text-stroke-width: 0px; text-decoration-thickness: initial; text-decoration-style: initial; text-decoration-color: initial;&quot;&gt;Hi green&lt;/font&gt;&lt;br style=&quot;border-color: var(--border-color); color: rgb(0, 0, 0); font-family: Helvetica; font-size: 11px; font-style: normal; font-variant-ligatures: normal; font-variant-caps: normal; font-weight: 400; letter-spacing: normal; orphans: 2; text-align: center; text-indent: 0px; text-transform: none; widows: 2; word-spacing: 0px; -webkit-text-stroke-width: 0px; text-decoration-thickness: initial; text-decoration-style: initial; text-decoration-color: initial;&quot;&gt;&lt;span style=&quot;color: rgb(0, 0, 0); font-family: Helvetica; font-size: 11px; font-style: normal; font-variant-ligatures: normal; font-variant-caps: normal; font-weight: 400; letter-spacing: normal; orphans: 2; text-align: center; text-indent: 0px; text-transform: none; widows: 2; word-spacing: 0px; -webkit-text-stroke-width: 0px; background-color: rgb(255, 255, 255); text-decoration-thickness: initial; text-decoration-style: initial; text-decoration-color: initial; float: none; display: inline !important;&quot;&gt;Hi black&lt;/span&gt;" style="endArrow=classic;html=1;rounded=0;" parent="1" edge="1">
          <mxGeometry width="50" height="50" relative="1" as="geometry">
            <mxPoint x="547.5" y="1026.9429347826085" as="sourcePoint" />
            <mxPoint x="665.5" y="1026.3016304347825" as="targetPoint" />
          </mxGeometry>
        </mxCell>
        <mxCell id="LhaRlDJhXZ1Ku-Um4sd2-37" value="&lt;font color=&quot;#ff0000&quot;&gt;Hi red&lt;/font&gt;&lt;br&gt;&lt;font color=&quot;#00ff00&quot;&gt;Hi green&lt;/font&gt;&lt;br&gt;Hi black" style="endArrow=classic;html=1;rounded=0;edgeStyle=orthogonalEdgeStyle;" parent="1" source="LhaRlDJhXZ1Ku-Um4sd2-3" target="LhaRlDJhXZ1Ku-Um4sd2-2" edge="1">
          <mxGeometry x="-0.0563" y="4" width="50" height="50" relative="1" as="geometry">
            <mxPoint x="188.5" y="972" as="sourcePoint" />
            <mxPoint x="264.5" y="972" as="targetPoint" />
            <Array as="points">
              <mxPoint x="219.5" y="962" />
              <mxPoint x="219.5" y="962" />
            </Array>
            <mxPoint as="offset" />
          </mxGeometry>
        </mxCell>
        <mxCell id="LhaRlDJhXZ1Ku-Um4sd2-38" value="binding(black)" style="endArrow=classic;html=1;rounded=0;exitX=0.874;exitY=0.393;exitDx=0;exitDy=0;exitPerimeter=0;entryX=0.113;entryY=0.833;entryDx=0;entryDy=0;entryPerimeter=0;" parent="1" source="LhaRlDJhXZ1Ku-Um4sd2-2" target="LhaRlDJhXZ1Ku-Um4sd2-14" edge="1">
          <mxGeometry x="-0.0858" y="-1" width="50" height="50" relative="1" as="geometry">
            <mxPoint x="327.5" y="955" as="sourcePoint" />
            <mxPoint x="407.5" y="897" as="targetPoint" />
            <mxPoint as="offset" />
          </mxGeometry>
        </mxCell>
        <mxCell id="LhaRlDJhXZ1Ku-Um4sd2-39" value="binding(black)" style="endArrow=classic;html=1;rounded=0;entryX=0;entryY=0.633;entryDx=0;entryDy=0;exitX=0.67;exitY=0.803;exitDx=0;exitDy=0;exitPerimeter=0;entryPerimeter=0;" parent="1" source="LhaRlDJhXZ1Ku-Um4sd2-2" target="LhaRlDJhXZ1Ku-Um4sd2-26" edge="1">
          <mxGeometry x="0.1911" width="50" height="50" relative="1" as="geometry">
            <mxPoint x="338.5" y="978" as="sourcePoint" />
            <mxPoint x="409.5" y="1006" as="targetPoint" />
            <mxPoint as="offset" />
          </mxGeometry>
        </mxCell>
        <mxCell id="LhaRlDJhXZ1Ku-Um4sd2-77" value="&lt;font style=&quot;border-color: var(--border-color); font-family: Helvetica; font-size: 11px; font-style: normal; font-variant-ligatures: normal; font-variant-caps: normal; font-weight: 400; letter-spacing: normal; orphans: 2; text-align: center; text-indent: 0px; text-transform: none; widows: 2; word-spacing: 0px; -webkit-text-stroke-width: 0px; text-decoration-thickness: initial; text-decoration-style: initial; text-decoration-color: initial;&quot; color=&quot;#ff0000&quot;&gt;Hi red&lt;/font&gt;&lt;br style=&quot;border-color: var(--border-color); color: rgb(0, 0, 0); font-family: Helvetica; font-size: 11px; font-style: normal; font-variant-ligatures: normal; font-variant-caps: normal; font-weight: 400; letter-spacing: normal; orphans: 2; text-align: center; text-indent: 0px; text-transform: none; widows: 2; word-spacing: 0px; -webkit-text-stroke-width: 0px; text-decoration-thickness: initial; text-decoration-style: initial; text-decoration-color: initial;&quot;&gt;&lt;span style=&quot;color: rgb(0, 0, 0); font-family: Helvetica; font-size: 11px; font-style: normal; font-variant-ligatures: normal; font-variant-caps: normal; font-weight: 400; letter-spacing: normal; orphans: 2; text-align: center; text-indent: 0px; text-transform: none; widows: 2; word-spacing: 0px; -webkit-text-stroke-width: 0px; background-color: rgb(255, 255, 255); text-decoration-thickness: initial; text-decoration-style: initial; text-decoration-color: initial; float: none; display: inline !important;&quot;&gt;Hi black&lt;/span&gt;" style="endArrow=classic;html=1;rounded=0;" parent="1" edge="1">
          <mxGeometry width="50" height="50" relative="1" as="geometry">
            <mxPoint x="550.5" y="896.9435483870968" as="sourcePoint" />
            <mxPoint x="670.5" y="896.2983870967741" as="targetPoint" />
          </mxGeometry>
        </mxCell>
        <mxCell id="sAzIgk4LT3O9QAnRBRQD-1" value="Message Broker" style="text;html=1;strokeColor=none;fillColor=none;align=center;verticalAlign=middle;whiteSpace=wrap;rounded=0;fontSize=15;" parent="1" vertex="1">
          <mxGeometry x="262" y="104" width="60" height="30" as="geometry" />
        </mxCell>
        <mxCell id="sAzIgk4LT3O9QAnRBRQD-2" value="Queue 2" style="text;html=1;strokeColor=none;fillColor=none;align=center;verticalAlign=middle;whiteSpace=wrap;rounded=0;" parent="1" vertex="1">
          <mxGeometry x="427" y="190" width="60" height="30" as="geometry" />
        </mxCell>
        <mxCell id="sAzIgk4LT3O9QAnRBRQD-3" value="Queue1" style="text;html=1;strokeColor=none;fillColor=none;align=center;verticalAlign=middle;whiteSpace=wrap;rounded=0;" parent="1" vertex="1">
          <mxGeometry x="427" y="108" width="60" height="30" as="geometry" />
        </mxCell>
        <mxCell id="sAzIgk4LT3O9QAnRBRQD-4" value="&amp;nbsp;amq.gen-DgHx4DCrRc-7SJ9cd19j2g" style="text;html=1;strokeColor=none;fillColor=none;align=center;verticalAlign=middle;whiteSpace=wrap;rounded=0;" parent="1" vertex="1">
          <mxGeometry x="406.5" y="843" width="231" height="30" as="geometry" />
        </mxCell>
        <mxCell id="sAzIgk4LT3O9QAnRBRQD-5" value="Queue1" style="text;html=1;strokeColor=none;fillColor=none;align=center;verticalAlign=middle;whiteSpace=wrap;rounded=0;" parent="1" vertex="1">
          <mxGeometry x="426.34" y="389" width="60" height="30" as="geometry" />
        </mxCell>
        <mxCell id="sAzIgk4LT3O9QAnRBRQD-7" value="amq.gen-QYtHGSB-4fBCEGkLLyIMKQ" style="text;html=1;strokeColor=none;fillColor=none;align=center;verticalAlign=middle;whiteSpace=wrap;rounded=0;" parent="1" vertex="1">
          <mxGeometry x="394" y="972" width="268" height="30" as="geometry" />
        </mxCell>
        <mxCell id="sAzIgk4LT3O9QAnRBRQD-41" value="Fanout&lt;br&gt;Exchange" style="rhombus;whiteSpace=wrap;html=1;" parent="1" vertex="1">
          <mxGeometry x="257.5" y="620" width="80" height="80" as="geometry" />
        </mxCell>
        <mxCell id="sAzIgk4LT3O9QAnRBRQD-42" value="Producer 1" style="rounded=1;whiteSpace=wrap;html=1;" parent="1" vertex="1">
          <mxGeometry x="77.5" y="630" width="104" height="60" as="geometry" />
        </mxCell>
        <mxCell id="sAzIgk4LT3O9QAnRBRQD-43" value="msg 1&lt;br&gt;msg 2&lt;br&gt;msg 3" style="endArrow=classic;html=1;rounded=0;" parent="1" edge="1">
          <mxGeometry x="0.0025" width="50" height="50" relative="1" as="geometry">
            <mxPoint x="181.5" y="660.0000000000002" as="sourcePoint" />
            <mxPoint x="257.5" y="660.0000000000002" as="targetPoint" />
            <mxPoint as="offset" />
          </mxGeometry>
        </mxCell>
        <mxCell id="sAzIgk4LT3O9QAnRBRQD-44" value="" style="endArrow=classic;html=1;rounded=0;" parent="1" source="sAzIgk4LT3O9QAnRBRQD-41" target="sAzIgk4LT3O9QAnRBRQD-53" edge="1">
          <mxGeometry width="50" height="50" relative="1" as="geometry">
            <mxPoint x="399.5" y="685" as="sourcePoint" />
            <mxPoint x="449.5" y="635" as="targetPoint" />
          </mxGeometry>
        </mxCell>
        <mxCell id="sAzIgk4LT3O9QAnRBRQD-45" value="" style="group" parent="1" vertex="1" connectable="0">
          <mxGeometry x="405.5" y="669" width="126" height="60" as="geometry" />
        </mxCell>
        <mxCell id="sAzIgk4LT3O9QAnRBRQD-46" value="" style="rounded=0;whiteSpace=wrap;html=1;" parent="sAzIgk4LT3O9QAnRBRQD-45" vertex="1">
          <mxGeometry width="21" height="60" as="geometry" />
        </mxCell>
        <mxCell id="sAzIgk4LT3O9QAnRBRQD-47" value="" style="rounded=0;whiteSpace=wrap;html=1;" parent="sAzIgk4LT3O9QAnRBRQD-45" vertex="1">
          <mxGeometry x="21" width="21" height="60" as="geometry" />
        </mxCell>
        <mxCell id="sAzIgk4LT3O9QAnRBRQD-48" value="" style="rounded=0;whiteSpace=wrap;html=1;" parent="sAzIgk4LT3O9QAnRBRQD-45" vertex="1">
          <mxGeometry x="42" width="21" height="60" as="geometry" />
        </mxCell>
        <mxCell id="sAzIgk4LT3O9QAnRBRQD-49" value="" style="rounded=0;whiteSpace=wrap;html=1;" parent="sAzIgk4LT3O9QAnRBRQD-45" vertex="1">
          <mxGeometry x="63" width="21" height="60" as="geometry" />
        </mxCell>
        <mxCell id="sAzIgk4LT3O9QAnRBRQD-50" value="" style="rounded=0;whiteSpace=wrap;html=1;" parent="sAzIgk4LT3O9QAnRBRQD-45" vertex="1">
          <mxGeometry x="84" width="21" height="60" as="geometry" />
        </mxCell>
        <mxCell id="sAzIgk4LT3O9QAnRBRQD-51" value="" style="rounded=0;whiteSpace=wrap;html=1;" parent="sAzIgk4LT3O9QAnRBRQD-45" vertex="1">
          <mxGeometry x="105" width="21" height="60" as="geometry" />
        </mxCell>
        <mxCell id="sAzIgk4LT3O9QAnRBRQD-52" value="" style="group" parent="1" vertex="1" connectable="0">
          <mxGeometry x="405.5" y="586" width="126" height="60" as="geometry" />
        </mxCell>
        <mxCell id="sAzIgk4LT3O9QAnRBRQD-53" value="" style="rounded=0;whiteSpace=wrap;html=1;" parent="sAzIgk4LT3O9QAnRBRQD-52" vertex="1">
          <mxGeometry width="21" height="60" as="geometry" />
        </mxCell>
        <mxCell id="sAzIgk4LT3O9QAnRBRQD-54" value="" style="rounded=0;whiteSpace=wrap;html=1;" parent="sAzIgk4LT3O9QAnRBRQD-52" vertex="1">
          <mxGeometry x="21" width="21" height="60" as="geometry" />
        </mxCell>
        <mxCell id="sAzIgk4LT3O9QAnRBRQD-55" value="" style="rounded=0;whiteSpace=wrap;html=1;" parent="sAzIgk4LT3O9QAnRBRQD-52" vertex="1">
          <mxGeometry x="42" width="21" height="60" as="geometry" />
        </mxCell>
        <mxCell id="sAzIgk4LT3O9QAnRBRQD-56" value="" style="rounded=0;whiteSpace=wrap;html=1;" parent="sAzIgk4LT3O9QAnRBRQD-52" vertex="1">
          <mxGeometry x="63" width="21" height="60" as="geometry" />
        </mxCell>
        <mxCell id="sAzIgk4LT3O9QAnRBRQD-57" value="" style="rounded=0;whiteSpace=wrap;html=1;" parent="sAzIgk4LT3O9QAnRBRQD-52" vertex="1">
          <mxGeometry x="84" width="21" height="60" as="geometry" />
        </mxCell>
        <mxCell id="sAzIgk4LT3O9QAnRBRQD-58" value="" style="rounded=0;whiteSpace=wrap;html=1;" parent="sAzIgk4LT3O9QAnRBRQD-52" vertex="1">
          <mxGeometry x="105" width="21" height="60" as="geometry" />
        </mxCell>
        <mxCell id="sAzIgk4LT3O9QAnRBRQD-59" value="" style="endArrow=classic;html=1;rounded=0;" parent="1" source="sAzIgk4LT3O9QAnRBRQD-41" target="sAzIgk4LT3O9QAnRBRQD-46" edge="1">
          <mxGeometry width="50" height="50" relative="1" as="geometry">
            <mxPoint x="399.5" y="685" as="sourcePoint" />
            <mxPoint x="449.5" y="635" as="targetPoint" />
          </mxGeometry>
        </mxCell>
        <mxCell id="sAzIgk4LT3O9QAnRBRQD-60" value="Consumer 1" style="rounded=1;whiteSpace=wrap;html=1;" parent="1" vertex="1">
          <mxGeometry x="649.5" y="583" width="111" height="60" as="geometry" />
        </mxCell>
        <mxCell id="sAzIgk4LT3O9QAnRBRQD-61" value="Consumer 2" style="rounded=1;whiteSpace=wrap;html=1;" parent="1" vertex="1">
          <mxGeometry x="647.5" y="666" width="111" height="60" as="geometry" />
        </mxCell>
        <mxCell id="sAzIgk4LT3O9QAnRBRQD-62" value="msg 1&lt;br&gt;msg 2&lt;br&gt;msg 3" style="endArrow=classic;html=1;rounded=0;" parent="1" source="sAzIgk4LT3O9QAnRBRQD-58" target="sAzIgk4LT3O9QAnRBRQD-60" edge="1">
          <mxGeometry width="50" height="50" relative="1" as="geometry">
            <mxPoint x="378.5" y="714" as="sourcePoint" />
            <mxPoint x="428.5" y="664" as="targetPoint" />
          </mxGeometry>
        </mxCell>
        <mxCell id="sAzIgk4LT3O9QAnRBRQD-63" value="msg 1&lt;br&gt;msg 2&lt;br&gt;msg 3" style="endArrow=classic;html=1;rounded=0;" parent="1" source="sAzIgk4LT3O9QAnRBRQD-51" target="sAzIgk4LT3O9QAnRBRQD-61" edge="1">
          <mxGeometry x="0.1893" y="-1" width="50" height="50" relative="1" as="geometry">
            <mxPoint x="520.5" y="915" as="sourcePoint" />
            <mxPoint x="428.5" y="664" as="targetPoint" />
            <mxPoint as="offset" />
          </mxGeometry>
        </mxCell>
        <mxCell id="sAzIgk4LT3O9QAnRBRQD-74" value="&amp;nbsp;amq.gen-DgHx4DCrRc-7SJ9cd19j2g" style="text;html=1;strokeColor=none;fillColor=none;align=center;verticalAlign=middle;whiteSpace=wrap;rounded=0;" parent="1" vertex="1">
          <mxGeometry x="385.5" y="563" width="231" height="30" as="geometry" />
        </mxCell>
        <mxCell id="sAzIgk4LT3O9QAnRBRQD-75" value="amq.gen-QYtHGSB-4fBCEGkLLyIMKQ" style="text;html=1;strokeColor=none;fillColor=none;align=center;verticalAlign=middle;whiteSpace=wrap;rounded=0;" parent="1" vertex="1">
          <mxGeometry x="376.5" y="646" width="268" height="30" as="geometry" />
        </mxCell>
        <mxCell id="sAzIgk4LT3O9QAnRBRQD-76" value="Client" style="rounded=1;whiteSpace=wrap;html=1;" parent="1" vertex="1">
          <mxGeometry x="61" y="1783" width="104" height="60" as="geometry" />
        </mxCell>
        <mxCell id="sAzIgk4LT3O9QAnRBRQD-77" value="Exchange" style="rhombus;whiteSpace=wrap;html=1;" parent="1" vertex="1">
          <mxGeometry x="206" y="1773" width="80" height="80" as="geometry" />
        </mxCell>
        <mxCell id="sAzIgk4LT3O9QAnRBRQD-78" value="" style="endArrow=classic;html=1;rounded=0;" parent="1" source="sAzIgk4LT3O9QAnRBRQD-76" target="sAzIgk4LT3O9QAnRBRQD-77" edge="1">
          <mxGeometry width="50" height="50" relative="1" as="geometry">
            <mxPoint x="455" y="1667" as="sourcePoint" />
            <mxPoint x="505" y="1617" as="targetPoint" />
          </mxGeometry>
        </mxCell>
        <mxCell id="sAzIgk4LT3O9QAnRBRQD-79" value="Default&lt;br&gt;Exchange" style="rhombus;whiteSpace=wrap;html=1;" parent="1" vertex="1">
          <mxGeometry x="447.00000000000006" y="1954" width="80" height="80" as="geometry" />
        </mxCell>
        <mxCell id="sAzIgk4LT3O9QAnRBRQD-80" value="Server" style="rounded=1;whiteSpace=wrap;html=1;" parent="1" vertex="1">
          <mxGeometry x="545.34" y="1878" width="104" height="60" as="geometry" />
        </mxCell>
        <mxCell id="sAzIgk4LT3O9QAnRBRQD-81" value="" style="group" parent="1" vertex="1" connectable="0">
          <mxGeometry x="359" y="1781" width="126" height="60" as="geometry" />
        </mxCell>
        <mxCell id="sAzIgk4LT3O9QAnRBRQD-82" value="" style="rounded=0;whiteSpace=wrap;html=1;" parent="sAzIgk4LT3O9QAnRBRQD-81" vertex="1">
          <mxGeometry width="21" height="60" as="geometry" />
        </mxCell>
        <mxCell id="sAzIgk4LT3O9QAnRBRQD-83" value="" style="rounded=0;whiteSpace=wrap;html=1;" parent="sAzIgk4LT3O9QAnRBRQD-81" vertex="1">
          <mxGeometry x="21" width="21" height="60" as="geometry" />
        </mxCell>
        <mxCell id="sAzIgk4LT3O9QAnRBRQD-84" value="" style="rounded=0;whiteSpace=wrap;html=1;" parent="sAzIgk4LT3O9QAnRBRQD-81" vertex="1">
          <mxGeometry x="42" width="21" height="60" as="geometry" />
        </mxCell>
        <mxCell id="sAzIgk4LT3O9QAnRBRQD-85" value="" style="rounded=0;whiteSpace=wrap;html=1;" parent="sAzIgk4LT3O9QAnRBRQD-81" vertex="1">
          <mxGeometry x="63" width="21" height="60" as="geometry" />
        </mxCell>
        <mxCell id="sAzIgk4LT3O9QAnRBRQD-86" value="" style="rounded=0;whiteSpace=wrap;html=1;" parent="sAzIgk4LT3O9QAnRBRQD-81" vertex="1">
          <mxGeometry x="84" width="21" height="60" as="geometry" />
        </mxCell>
        <mxCell id="sAzIgk4LT3O9QAnRBRQD-87" value="" style="rounded=0;whiteSpace=wrap;html=1;" parent="sAzIgk4LT3O9QAnRBRQD-81" vertex="1">
          <mxGeometry x="105" width="21" height="60" as="geometry" />
        </mxCell>
        <mxCell id="sAzIgk4LT3O9QAnRBRQD-88" value="" style="group" parent="1" vertex="1" connectable="0">
          <mxGeometry x="258" y="1964" width="126" height="60" as="geometry" />
        </mxCell>
        <mxCell id="sAzIgk4LT3O9QAnRBRQD-89" value="" style="rounded=0;whiteSpace=wrap;html=1;" parent="sAzIgk4LT3O9QAnRBRQD-88" vertex="1">
          <mxGeometry width="21" height="60" as="geometry" />
        </mxCell>
        <mxCell id="sAzIgk4LT3O9QAnRBRQD-90" value="" style="rounded=0;whiteSpace=wrap;html=1;" parent="sAzIgk4LT3O9QAnRBRQD-88" vertex="1">
          <mxGeometry x="21" width="21" height="60" as="geometry" />
        </mxCell>
        <mxCell id="sAzIgk4LT3O9QAnRBRQD-91" value="" style="rounded=0;whiteSpace=wrap;html=1;" parent="sAzIgk4LT3O9QAnRBRQD-88" vertex="1">
          <mxGeometry x="42" width="21" height="60" as="geometry" />
        </mxCell>
        <mxCell id="sAzIgk4LT3O9QAnRBRQD-92" value="" style="rounded=0;whiteSpace=wrap;html=1;" parent="sAzIgk4LT3O9QAnRBRQD-88" vertex="1">
          <mxGeometry x="63" width="21" height="60" as="geometry" />
        </mxCell>
        <mxCell id="sAzIgk4LT3O9QAnRBRQD-93" value="" style="rounded=0;whiteSpace=wrap;html=1;" parent="sAzIgk4LT3O9QAnRBRQD-88" vertex="1">
          <mxGeometry x="84" width="21" height="60" as="geometry" />
        </mxCell>
        <mxCell id="sAzIgk4LT3O9QAnRBRQD-94" value="" style="rounded=0;whiteSpace=wrap;html=1;" parent="sAzIgk4LT3O9QAnRBRQD-88" vertex="1">
          <mxGeometry x="105" width="21" height="60" as="geometry" />
        </mxCell>
        <mxCell id="sAzIgk4LT3O9QAnRBRQD-95" value="" style="endArrow=classic;html=1;rounded=0;" parent="1" source="sAzIgk4LT3O9QAnRBRQD-80" target="sAzIgk4LT3O9QAnRBRQD-79" edge="1">
          <mxGeometry width="50" height="50" relative="1" as="geometry">
            <mxPoint x="186" y="1884" as="sourcePoint" />
            <mxPoint x="226" y="1848" as="targetPoint" />
          </mxGeometry>
        </mxCell>
        <mxCell id="sAzIgk4LT3O9QAnRBRQD-96" value="" style="endArrow=classic;html=1;rounded=0;" parent="1" source="sAzIgk4LT3O9QAnRBRQD-77" target="sAzIgk4LT3O9QAnRBRQD-82" edge="1">
          <mxGeometry width="50" height="50" relative="1" as="geometry">
            <mxPoint x="455" y="1910" as="sourcePoint" />
            <mxPoint x="505" y="1860" as="targetPoint" />
          </mxGeometry>
        </mxCell>
        <mxCell id="sAzIgk4LT3O9QAnRBRQD-97" value="" style="endArrow=classic;html=1;rounded=0;" parent="1" source="sAzIgk4LT3O9QAnRBRQD-79" target="sAzIgk4LT3O9QAnRBRQD-94" edge="1">
          <mxGeometry width="50" height="50" relative="1" as="geometry">
            <mxPoint x="455" y="1910" as="sourcePoint" />
            <mxPoint x="505" y="1860" as="targetPoint" />
          </mxGeometry>
        </mxCell>
        <mxCell id="sAzIgk4LT3O9QAnRBRQD-98" value="" style="endArrow=classic;html=1;rounded=0;" parent="1" source="sAzIgk4LT3O9QAnRBRQD-89" target="sAzIgk4LT3O9QAnRBRQD-76" edge="1">
          <mxGeometry width="50" height="50" relative="1" as="geometry">
            <mxPoint x="455" y="1910" as="sourcePoint" />
            <mxPoint x="505" y="1860" as="targetPoint" />
          </mxGeometry>
        </mxCell>
        <mxCell id="sAzIgk4LT3O9QAnRBRQD-99" value="" style="endArrow=classic;html=1;rounded=0;" parent="1" source="sAzIgk4LT3O9QAnRBRQD-87" target="sAzIgk4LT3O9QAnRBRQD-80" edge="1">
          <mxGeometry width="50" height="50" relative="1" as="geometry">
            <mxPoint x="268" y="1996" as="sourcePoint" />
            <mxPoint x="195" y="1944" as="targetPoint" />
          </mxGeometry>
        </mxCell>
        <mxCell id="sAzIgk4LT3O9QAnRBRQD-101" value="message:&quot;Question ?&quot;&lt;br&gt;correlation_id: 123456&lt;br&gt;reply_to:amq.gen-QYtHGSB-4fBCEGkLLyIMKQ" style="text;html=1;strokeColor=none;fillColor=none;align=left;verticalAlign=middle;whiteSpace=wrap;rounded=0;" parent="1" vertex="1">
          <mxGeometry x="51" y="1706" width="315" height="67" as="geometry" />
        </mxCell>
        <mxCell id="sAzIgk4LT3O9QAnRBRQD-102" value="request-queue" style="text;html=1;strokeColor=none;fillColor=none;align=center;verticalAlign=middle;whiteSpace=wrap;rounded=0;" parent="1" vertex="1">
          <mxGeometry x="373" y="1751" width="95" height="30" as="geometry" />
        </mxCell>
        <mxCell id="sAzIgk4LT3O9QAnRBRQD-103" value="amq.gen-QYtHGSB-4fBCEGkLLyIMKQ" style="text;html=1;strokeColor=none;fillColor=none;align=center;verticalAlign=middle;whiteSpace=wrap;rounded=0;" parent="1" vertex="1">
          <mxGeometry x="231" y="1932" width="249" height="30" as="geometry" />
        </mxCell>
        <mxCell id="sAzIgk4LT3O9QAnRBRQD-104" value="correlation_id: 123456&lt;br&gt;message:&quot;Answer&quot;" style="text;html=1;strokeColor=none;fillColor=none;align=left;verticalAlign=middle;whiteSpace=wrap;rounded=0;" parent="1" vertex="1">
          <mxGeometry x="559.5" y="1951" width="222" height="67" as="geometry" />
        </mxCell>
        <mxCell id="sAzIgk4LT3O9QAnRBRQD-105" value="Request-Response pattern" style="text;html=1;strokeColor=none;fillColor=none;align=center;verticalAlign=middle;whiteSpace=wrap;rounded=0;fontSize=18;" parent="1" vertex="1">
          <mxGeometry x="228.5" y="1872" width="281.5" height="30" as="geometry" />
        </mxCell>
        <mxCell id="8w2XCiWl4zAk2KyYLPqL-1" value="headers&lt;br&gt;Exchange" style="rhombus;whiteSpace=wrap;html=1;" vertex="1" parent="1">
          <mxGeometry x="276.5" y="1542" width="80" height="80" as="geometry" />
        </mxCell>
        <mxCell id="8w2XCiWl4zAk2KyYLPqL-2" value="Producer 1" style="rounded=1;whiteSpace=wrap;html=1;" vertex="1" parent="1">
          <mxGeometry x="96.5" y="1552" width="104" height="60" as="geometry" />
        </mxCell>
        <mxCell id="8w2XCiWl4zAk2KyYLPqL-3" value="{a:1,b:5}&lt;br&gt;{a:1,b:3}&lt;br&gt;{a:2,b:5}&lt;br&gt;{a:7,b:9}" style="endArrow=classic;html=1;rounded=0;" edge="1" parent="1" source="8w2XCiWl4zAk2KyYLPqL-2" target="8w2XCiWl4zAk2KyYLPqL-1">
          <mxGeometry width="50" height="50" relative="1" as="geometry">
            <mxPoint x="418.5" y="1607" as="sourcePoint" />
            <mxPoint x="468.5" y="1557" as="targetPoint" />
          </mxGeometry>
        </mxCell>
        <mxCell id="8w2XCiWl4zAk2KyYLPqL-4" value="binding({a:1,b:5,x-match:all})" style="endArrow=classic;html=1;rounded=0;" edge="1" parent="1" source="8w2XCiWl4zAk2KyYLPqL-1" target="8w2XCiWl4zAk2KyYLPqL-6">
          <mxGeometry width="50" height="50" relative="1" as="geometry">
            <mxPoint x="446" y="1601" as="sourcePoint" />
            <mxPoint x="496" y="1551" as="targetPoint" />
          </mxGeometry>
        </mxCell>
        <mxCell id="8w2XCiWl4zAk2KyYLPqL-5" value="" style="group" vertex="1" connectable="0" parent="1">
          <mxGeometry x="473" y="1466" width="126" height="60" as="geometry" />
        </mxCell>
        <mxCell id="8w2XCiWl4zAk2KyYLPqL-6" value="" style="rounded=0;whiteSpace=wrap;html=1;" vertex="1" parent="8w2XCiWl4zAk2KyYLPqL-5">
          <mxGeometry width="21" height="60" as="geometry" />
        </mxCell>
        <mxCell id="8w2XCiWl4zAk2KyYLPqL-7" value="" style="rounded=0;whiteSpace=wrap;html=1;" vertex="1" parent="8w2XCiWl4zAk2KyYLPqL-5">
          <mxGeometry x="21" width="21" height="60" as="geometry" />
        </mxCell>
        <mxCell id="8w2XCiWl4zAk2KyYLPqL-8" value="" style="rounded=0;whiteSpace=wrap;html=1;" vertex="1" parent="8w2XCiWl4zAk2KyYLPqL-5">
          <mxGeometry x="42" width="21" height="60" as="geometry" />
        </mxCell>
        <mxCell id="8w2XCiWl4zAk2KyYLPqL-9" value="" style="rounded=0;whiteSpace=wrap;html=1;" vertex="1" parent="8w2XCiWl4zAk2KyYLPqL-5">
          <mxGeometry x="63" width="21" height="60" as="geometry" />
        </mxCell>
        <mxCell id="8w2XCiWl4zAk2KyYLPqL-10" value="" style="rounded=0;whiteSpace=wrap;html=1;" vertex="1" parent="8w2XCiWl4zAk2KyYLPqL-5">
          <mxGeometry x="84" width="21" height="60" as="geometry" />
        </mxCell>
        <mxCell id="8w2XCiWl4zAk2KyYLPqL-11" value="" style="rounded=0;whiteSpace=wrap;html=1;" vertex="1" parent="8w2XCiWl4zAk2KyYLPqL-5">
          <mxGeometry x="105" width="21" height="60" as="geometry" />
        </mxCell>
        <mxCell id="8w2XCiWl4zAk2KyYLPqL-12" value="Consumer 1" style="rounded=1;whiteSpace=wrap;html=1;" vertex="1" parent="1">
          <mxGeometry x="670.5" y="1466" width="111" height="60" as="geometry" />
        </mxCell>
        <mxCell id="8w2XCiWl4zAk2KyYLPqL-13" value="" style="group" vertex="1" connectable="0" parent="1">
          <mxGeometry x="473" y="1633" width="126" height="60" as="geometry" />
        </mxCell>
        <mxCell id="8w2XCiWl4zAk2KyYLPqL-14" value="" style="rounded=0;whiteSpace=wrap;html=1;" vertex="1" parent="8w2XCiWl4zAk2KyYLPqL-13">
          <mxGeometry width="21" height="60" as="geometry" />
        </mxCell>
        <mxCell id="8w2XCiWl4zAk2KyYLPqL-15" value="" style="rounded=0;whiteSpace=wrap;html=1;" vertex="1" parent="8w2XCiWl4zAk2KyYLPqL-13">
          <mxGeometry x="21" width="21" height="60" as="geometry" />
        </mxCell>
        <mxCell id="8w2XCiWl4zAk2KyYLPqL-16" value="" style="rounded=0;whiteSpace=wrap;html=1;" vertex="1" parent="8w2XCiWl4zAk2KyYLPqL-13">
          <mxGeometry x="42" width="21" height="60" as="geometry" />
        </mxCell>
        <mxCell id="8w2XCiWl4zAk2KyYLPqL-17" value="" style="rounded=0;whiteSpace=wrap;html=1;" vertex="1" parent="8w2XCiWl4zAk2KyYLPqL-13">
          <mxGeometry x="63" width="21" height="60" as="geometry" />
        </mxCell>
        <mxCell id="8w2XCiWl4zAk2KyYLPqL-18" value="" style="rounded=0;whiteSpace=wrap;html=1;" vertex="1" parent="8w2XCiWl4zAk2KyYLPqL-13">
          <mxGeometry x="84" width="21" height="60" as="geometry" />
        </mxCell>
        <mxCell id="8w2XCiWl4zAk2KyYLPqL-19" value="" style="rounded=0;whiteSpace=wrap;html=1;" vertex="1" parent="8w2XCiWl4zAk2KyYLPqL-13">
          <mxGeometry x="105" width="21" height="60" as="geometry" />
        </mxCell>
        <mxCell id="8w2XCiWl4zAk2KyYLPqL-20" value="Consumer 2" style="rounded=1;whiteSpace=wrap;html=1;" vertex="1" parent="1">
          <mxGeometry x="670.5" y="1633" width="111" height="60" as="geometry" />
        </mxCell>
        <mxCell id="8w2XCiWl4zAk2KyYLPqL-21" value="binding({a:1,b:5,x-match:any})" style="endArrow=classic;html=1;rounded=0;" edge="1" parent="1" source="8w2XCiWl4zAk2KyYLPqL-1" target="8w2XCiWl4zAk2KyYLPqL-14">
          <mxGeometry x="-0.0541" y="2" width="50" height="50" relative="1" as="geometry">
            <mxPoint x="379.5" y="1571" as="sourcePoint" />
            <mxPoint x="483.5" y="1512" as="targetPoint" />
            <mxPoint as="offset" />
          </mxGeometry>
        </mxCell>
        <mxCell id="8w2XCiWl4zAk2KyYLPqL-22" value="{a:1,b:5}" style="endArrow=classic;html=1;rounded=0;" edge="1" parent="1" source="8w2XCiWl4zAk2KyYLPqL-11" target="8w2XCiWl4zAk2KyYLPqL-12">
          <mxGeometry width="50" height="50" relative="1" as="geometry">
            <mxPoint x="571.5" y="1581" as="sourcePoint" />
            <mxPoint x="647.5" y="1581" as="targetPoint" />
          </mxGeometry>
        </mxCell>
        <mxCell id="8w2XCiWl4zAk2KyYLPqL-23" value="{a:1,b:5}&lt;br&gt;{a:1,b:3}&lt;br&gt;{a:2,b:5}" style="endArrow=classic;html=1;rounded=0;" edge="1" parent="1" source="8w2XCiWl4zAk2KyYLPqL-19" target="8w2XCiWl4zAk2KyYLPqL-20">
          <mxGeometry width="50" height="50" relative="1" as="geometry">
            <mxPoint x="581.5" y="1591" as="sourcePoint" />
            <mxPoint x="657.5" y="1591" as="targetPoint" />
          </mxGeometry>
        </mxCell>
        <mxCell id="8w2XCiWl4zAk2KyYLPqL-24" value="Exchange&amp;nbsp;" style="rhombus;whiteSpace=wrap;html=1;" vertex="1" parent="1">
          <mxGeometry x="229.25" y="2507" width="80" height="80" as="geometry" />
        </mxCell>
        <mxCell id="8w2XCiWl4zAk2KyYLPqL-25" value="Producer" style="rounded=1;whiteSpace=wrap;html=1;" vertex="1" parent="1">
          <mxGeometry x="64.25" y="2517" width="104" height="60" as="geometry" />
        </mxCell>
        <mxCell id="8w2XCiWl4zAk2KyYLPqL-26" value="" style="endArrow=classic;html=1;rounded=0;" edge="1" parent="1" source="8w2XCiWl4zAk2KyYLPqL-25" target="8w2XCiWl4zAk2KyYLPqL-24">
          <mxGeometry width="50" height="50" relative="1" as="geometry">
            <mxPoint x="386.25" y="2572" as="sourcePoint" />
            <mxPoint x="436.25" y="2522" as="targetPoint" />
          </mxGeometry>
        </mxCell>
        <mxCell id="8w2XCiWl4zAk2KyYLPqL-27" value="not match" style="endArrow=classic;html=1;rounded=0;" edge="1" parent="1" source="8w2XCiWl4zAk2KyYLPqL-24" target="8w2XCiWl4zAk2KyYLPqL-47">
          <mxGeometry width="50" height="50" relative="1" as="geometry">
            <mxPoint x="386.25" y="2572" as="sourcePoint" />
            <mxPoint x="436.25" y="2522" as="targetPoint" />
            <mxPoint as="offset" />
          </mxGeometry>
        </mxCell>
        <mxCell id="8w2XCiWl4zAk2KyYLPqL-28" value="" style="group" vertex="1" connectable="0" parent="1">
          <mxGeometry x="387.25" y="2517" width="126" height="60" as="geometry" />
        </mxCell>
        <mxCell id="8w2XCiWl4zAk2KyYLPqL-29" value="" style="rounded=0;whiteSpace=wrap;html=1;" vertex="1" parent="8w2XCiWl4zAk2KyYLPqL-28">
          <mxGeometry width="21" height="60" as="geometry" />
        </mxCell>
        <mxCell id="8w2XCiWl4zAk2KyYLPqL-30" value="" style="rounded=0;whiteSpace=wrap;html=1;" vertex="1" parent="8w2XCiWl4zAk2KyYLPqL-28">
          <mxGeometry x="21" width="21" height="60" as="geometry" />
        </mxCell>
        <mxCell id="8w2XCiWl4zAk2KyYLPqL-31" value="" style="rounded=0;whiteSpace=wrap;html=1;" vertex="1" parent="8w2XCiWl4zAk2KyYLPqL-28">
          <mxGeometry x="42" width="21" height="60" as="geometry" />
        </mxCell>
        <mxCell id="8w2XCiWl4zAk2KyYLPqL-32" value="" style="rounded=0;whiteSpace=wrap;html=1;" vertex="1" parent="8w2XCiWl4zAk2KyYLPqL-28">
          <mxGeometry x="63" width="21" height="60" as="geometry" />
        </mxCell>
        <mxCell id="8w2XCiWl4zAk2KyYLPqL-33" value="" style="rounded=0;whiteSpace=wrap;html=1;" vertex="1" parent="8w2XCiWl4zAk2KyYLPqL-28">
          <mxGeometry x="84" width="21" height="60" as="geometry" />
        </mxCell>
        <mxCell id="8w2XCiWl4zAk2KyYLPqL-34" value="" style="rounded=0;whiteSpace=wrap;html=1;" vertex="1" parent="8w2XCiWl4zAk2KyYLPqL-28">
          <mxGeometry x="105" width="21" height="60" as="geometry" />
        </mxCell>
        <mxCell id="8w2XCiWl4zAk2KyYLPqL-35" value="" style="group" vertex="1" connectable="0" parent="1">
          <mxGeometry x="384.25" y="2649" width="126" height="60" as="geometry" />
        </mxCell>
        <mxCell id="8w2XCiWl4zAk2KyYLPqL-36" value="" style="rounded=0;whiteSpace=wrap;html=1;" vertex="1" parent="8w2XCiWl4zAk2KyYLPqL-35">
          <mxGeometry width="21" height="60" as="geometry" />
        </mxCell>
        <mxCell id="8w2XCiWl4zAk2KyYLPqL-37" value="" style="rounded=0;whiteSpace=wrap;html=1;" vertex="1" parent="8w2XCiWl4zAk2KyYLPqL-35">
          <mxGeometry x="21" width="21" height="60" as="geometry" />
        </mxCell>
        <mxCell id="8w2XCiWl4zAk2KyYLPqL-38" value="" style="rounded=0;whiteSpace=wrap;html=1;" vertex="1" parent="8w2XCiWl4zAk2KyYLPqL-35">
          <mxGeometry x="42" width="21" height="60" as="geometry" />
        </mxCell>
        <mxCell id="8w2XCiWl4zAk2KyYLPqL-39" value="" style="rounded=0;whiteSpace=wrap;html=1;" vertex="1" parent="8w2XCiWl4zAk2KyYLPqL-35">
          <mxGeometry x="63" width="21" height="60" as="geometry" />
        </mxCell>
        <mxCell id="8w2XCiWl4zAk2KyYLPqL-40" value="" style="rounded=0;whiteSpace=wrap;html=1;" vertex="1" parent="8w2XCiWl4zAk2KyYLPqL-35">
          <mxGeometry x="84" width="21" height="60" as="geometry" />
        </mxCell>
        <mxCell id="8w2XCiWl4zAk2KyYLPqL-41" value="" style="rounded=0;whiteSpace=wrap;html=1;" vertex="1" parent="8w2XCiWl4zAk2KyYLPqL-35">
          <mxGeometry x="105" width="21" height="60" as="geometry" />
        </mxCell>
        <mxCell id="8w2XCiWl4zAk2KyYLPqL-42" value="match" style="endArrow=classic;html=1;rounded=0;" edge="1" parent="1" source="8w2XCiWl4zAk2KyYLPqL-24" target="8w2XCiWl4zAk2KyYLPqL-29">
          <mxGeometry width="50" height="50" relative="1" as="geometry">
            <mxPoint x="386.25" y="2572" as="sourcePoint" />
            <mxPoint x="436.25" y="2522" as="targetPoint" />
          </mxGeometry>
        </mxCell>
        <mxCell id="8w2XCiWl4zAk2KyYLPqL-43" value="Logging Service&lt;br&gt;(No consumer)" style="rounded=1;whiteSpace=wrap;html=1;" vertex="1" parent="1">
          <mxGeometry x="574.25" y="2649" width="111" height="60" as="geometry" />
        </mxCell>
        <mxCell id="8w2XCiWl4zAk2KyYLPqL-44" value="Consumer" style="rounded=1;whiteSpace=wrap;html=1;" vertex="1" parent="1">
          <mxGeometry x="574.25" y="2517" width="111" height="60" as="geometry" />
        </mxCell>
        <mxCell id="8w2XCiWl4zAk2KyYLPqL-45" value="" style="endArrow=classic;html=1;rounded=0;" edge="1" parent="1" source="8w2XCiWl4zAk2KyYLPqL-41" target="8w2XCiWl4zAk2KyYLPqL-43">
          <mxGeometry width="50" height="50" relative="1" as="geometry">
            <mxPoint x="383.25" y="2780" as="sourcePoint" />
            <mxPoint x="433.25" y="2730" as="targetPoint" />
          </mxGeometry>
        </mxCell>
        <mxCell id="8w2XCiWl4zAk2KyYLPqL-46" value="" style="endArrow=classic;html=1;rounded=0;" edge="1" parent="1" source="8w2XCiWl4zAk2KyYLPqL-34" target="8w2XCiWl4zAk2KyYLPqL-44">
          <mxGeometry width="50" height="50" relative="1" as="geometry">
            <mxPoint x="528.25" y="2766" as="sourcePoint" />
            <mxPoint x="436.25" y="2515" as="targetPoint" />
          </mxGeometry>
        </mxCell>
        <mxCell id="8w2XCiWl4zAk2KyYLPqL-47" value="Alternate&lt;br&gt;Exchange&amp;nbsp;" style="rhombus;whiteSpace=wrap;html=1;" vertex="1" parent="1">
          <mxGeometry x="229.25" y="2641" width="80" height="80" as="geometry" />
        </mxCell>
        <mxCell id="8w2XCiWl4zAk2KyYLPqL-48" value="" style="endArrow=classic;html=1;rounded=0;" edge="1" parent="1" source="8w2XCiWl4zAk2KyYLPqL-47" target="8w2XCiWl4zAk2KyYLPqL-36">
          <mxGeometry width="50" height="50" relative="1" as="geometry">
            <mxPoint x="417.25" y="2631" as="sourcePoint" />
            <mxPoint x="467.25" y="2581" as="targetPoint" />
          </mxGeometry>
        </mxCell>
        <mxCell id="8w2XCiWl4zAk2KyYLPqL-49" value="" style="group" vertex="1" connectable="0" parent="1">
          <mxGeometry x="502.25" y="2396" width="126" height="60" as="geometry" />
        </mxCell>
        <mxCell id="8w2XCiWl4zAk2KyYLPqL-50" value="" style="rounded=0;whiteSpace=wrap;html=1;" vertex="1" parent="8w2XCiWl4zAk2KyYLPqL-49">
          <mxGeometry width="21" height="60" as="geometry" />
        </mxCell>
        <mxCell id="8w2XCiWl4zAk2KyYLPqL-51" value="" style="rounded=0;whiteSpace=wrap;html=1;" vertex="1" parent="8w2XCiWl4zAk2KyYLPqL-49">
          <mxGeometry x="21" width="21" height="60" as="geometry" />
        </mxCell>
        <mxCell id="8w2XCiWl4zAk2KyYLPqL-52" value="" style="rounded=0;whiteSpace=wrap;html=1;" vertex="1" parent="8w2XCiWl4zAk2KyYLPqL-49">
          <mxGeometry x="42" width="21" height="60" as="geometry" />
        </mxCell>
        <mxCell id="8w2XCiWl4zAk2KyYLPqL-53" value="" style="rounded=0;whiteSpace=wrap;html=1;" vertex="1" parent="8w2XCiWl4zAk2KyYLPqL-49">
          <mxGeometry x="63" width="21" height="60" as="geometry" />
        </mxCell>
        <mxCell id="8w2XCiWl4zAk2KyYLPqL-54" value="" style="rounded=0;whiteSpace=wrap;html=1;" vertex="1" parent="8w2XCiWl4zAk2KyYLPqL-49">
          <mxGeometry x="84" width="21" height="60" as="geometry" />
        </mxCell>
        <mxCell id="8w2XCiWl4zAk2KyYLPqL-55" value="" style="rounded=0;whiteSpace=wrap;html=1;" vertex="1" parent="8w2XCiWl4zAk2KyYLPqL-49">
          <mxGeometry x="105" width="21" height="60" as="geometry" />
        </mxCell>
        <mxCell id="8w2XCiWl4zAk2KyYLPqL-56" value="Logging Service&lt;br&gt;(undelivery)" style="rounded=1;whiteSpace=wrap;html=1;" vertex="1" parent="1">
          <mxGeometry x="665.75" y="2396" width="111" height="60" as="geometry" />
        </mxCell>
        <mxCell id="8w2XCiWl4zAk2KyYLPqL-57" value="" style="endArrow=classic;html=1;rounded=0;" edge="1" parent="1" source="8w2XCiWl4zAk2KyYLPqL-55" target="8w2XCiWl4zAk2KyYLPqL-56">
          <mxGeometry width="50" height="50" relative="1" as="geometry">
            <mxPoint x="520.25" y="2527" as="sourcePoint" />
            <mxPoint x="570.25" y="2477" as="targetPoint" />
          </mxGeometry>
        </mxCell>
        <mxCell id="8w2XCiWl4zAk2KyYLPqL-58" value="Dead Letter&lt;br&gt;Exchange&amp;nbsp;" style="rhombus;whiteSpace=wrap;html=1;" vertex="1" parent="1">
          <mxGeometry x="399.75" y="2386" width="80" height="80" as="geometry" />
        </mxCell>
        <mxCell id="8w2XCiWl4zAk2KyYLPqL-59" value="" style="endArrow=classic;html=1;rounded=0;" edge="1" parent="1" source="8w2XCiWl4zAk2KyYLPqL-58" target="8w2XCiWl4zAk2KyYLPqL-50">
          <mxGeometry width="50" height="50" relative="1" as="geometry">
            <mxPoint x="554.25" y="2378" as="sourcePoint" />
            <mxPoint x="604.25" y="2328" as="targetPoint" />
          </mxGeometry>
        </mxCell>
        <mxCell id="8w2XCiWl4zAk2KyYLPqL-60" value="expire/reject" style="endArrow=classic;html=1;rounded=0;" edge="1" parent="1" source="8w2XCiWl4zAk2KyYLPqL-31" target="8w2XCiWl4zAk2KyYLPqL-58">
          <mxGeometry width="50" height="50" relative="1" as="geometry">
            <mxPoint x="419.25" y="2725" as="sourcePoint" />
            <mxPoint x="469.25" y="2675" as="targetPoint" />
          </mxGeometry>
        </mxCell>
      </root>
    </mxGraphModel>
  </diagram>
</mxfile>
